# xmcd
#
# Track frame offsets:
# 150
# 12865
# 28455
# 45464
# 60659
# 77570
# 95383
# 110702
# 131781
# 143594
# 158139
# 176803
# 195278
# 216825
# 231907
# 248817
# 262893
# 277699
# 290516
# 308204
#
# Disc length: 4303 seconds
#
#
# Revision: 0
# Processed by: cddbd v1.5.1PL0 Copyright (c) Steve Scherf et al.
# Submitted via: FreeRIP 2.942 
#
DISCID=1610cd14
DTITLE=Variados - As 20 Mais - Sertanejo de Ouro 2005
DYEAR=2005
DGENRE=Country
TTITLE0=Balançou, Sacudiu - Rionegro e Solimões
TTITLE1=Que Pescar Que Nada - Bruno e Marrone
TTITLE2=Doidinho Por Você - Rick e renner
TTITLE3=De Bad Boy a Peão - Juliano Cezar
TTITLE4=Alô Meu Povo - Guilherme e Santiago
TTITLE5=Sistema Bruto - Chitãozinho e Xororó
TTITLE6=Trmelê - Zé Henrique e Gabriel
TTITLE7=Onde Anda Você - Di Paulo e Paulino
TTITLE8=Nóis Gosta de Muié - Gilberto e Gilmar
TTITLE9=Tudo Passará - Leonardo
TTITLE10=desatino - Daniel
TTITLE11=Bebedeira - Rick e Renner
TTITLE12=Sinônimos - Chitãozinho e Xororó
TTITLE13=Agita Ai - Gino e Geno
TTITLE14=Fera Mansa - Zezé de Camargo e Luciano
TTITLE15=Namorada do Carinha - Teodoro e Sampaio
TTITLE16=Galera Coração - Edson e Hudson
TTITLE17=Clube do Batidão - Rionegro e Solimões
TTITLE18=E Prá Sempre Te Amar - Guilherme e Santiago
TTITLE19=A Galera do Chapéu -Ggino e Geno
EXTD=
EXTT0=
EXTT1=
EXTT2=
EXTT3=
EXTT4=
EXTT5=
EXTT6=
EXTT7=
EXTT8=
EXTT9=
EXTT10=
EXTT11=
EXTT12=
EXTT13=
EXTT14=
EXTT15=
EXTT16=
EXTT17=
EXTT18=
EXTT19=
PLAYORDER=
